<?xml version="1.0" encoding="UTF-8" standalone="no"?>
<!-- Created with Inkscape (http://www.inkscape.org/) -->

<svg
   xmlns:dc="http://purl.org/dc/elements/1.1/"
   xmlns:cc="http://creativecommons.org/ns#"
   xmlns:rdf="http://www.w3.org/1999/02/22-rdf-syntax-ns#"
   xmlns:svg="http://www.w3.org/2000/svg"
   xmlns="http://www.w3.org/2000/svg"
   xmlns:sodipodi="http://sodipodi.sourceforge.net/DTD/sodipodi-0.dtd"
   xmlns:inkscape="http://www.inkscape.org/namespaces/inkscape"
   version="1.1"
   id="svg3701"
   width="564"
   height="552"
   viewBox="0 0 564 552"
   sodipodi:docname="Logo.svg"
   inkscape:version="0.92.2 (5c3e80d, 2017-08-06)">
  <sodipodi:namedview
     pagecolor="#ffffff"
     bordercolor="#666666"
     borderopacity="1"
     objecttolerance="10"
     gridtolerance="10"
     guidetolerance="10"
     inkscape:pageopacity="0"
     inkscape:pageshadow="2"
     inkscape:window-width="1920"
     inkscape:window-height="986"
     id="namedview3703"
     showgrid="false"
     inkscape:zoom="0.42753623"
     inkscape:cx="282"
     inkscape:cy="276"
     inkscape:window-x="-11"
     inkscape:window-y="-11"
     inkscape:window-maximized="1"
     inkscape:current-layer="svg3701" />
  <metadata
     id="metadata3707">
    <rdf:RDF>
      <cc:Work
         rdf:about="">
        <dc:format>image/svg+xml</dc:format>
        <dc:type
           rdf:resource="http://purl.org/dc/dcmitype/StillImage" />
        <dc:title></dc:title>
      </cc:Work>
    </rdf:RDF>
  </metadata>
  <defs
     id="defs3705" />
  <path
     style="fill:#000000"
     d="m 239.8644,532.71855 c -23.60044,-3.44584 -47.52384,-13.90187 -62.46968,-27.30318 -7.8145,-7.00693 -16.60839,-16.53341 -15.57879,-16.87661 0.57666,-0.19223 1.04847,-0.81014 1.04847,-1.37315 0,-0.56301 -0.65844,-0.77099 -1.46321,-0.46217 -1.81889,0.69797 -5.6369,-3.92303 -4.87716,-5.9029 0.30138,-0.78539 -0.18427,-1.7087 -1.07942,-2.05221 -1.22713,-0.47089 -1.50811,-1.51808 -1.14263,-4.25842 0.26657,-1.99869 0.23349,-2.73398 -0.0735,-1.63398 -0.85864,3.07654 -2.25572,4.07254 -2.31314,1.64908 -0.028,-1.18199 -0.0709,-3.15492 -0.0954,-4.38427 -0.0244,-1.22935 0.42837,-2.39279 1.00623,-2.58541 0.57787,-0.19262 0.77966,-0.78871 0.44843,-1.32465 -0.34046,-0.55089 -1.24797,-0.18777 -2.08786,0.83541 -1.36632,1.66449 -1.44144,1.6693 -0.93539,0.0598 0.73322,-2.3319 -0.27216,-4.75 -1.97491,-4.75 -0.75568,0 -1.65554,-1.12189 -1.99969,-2.49309 -0.34415,-1.3712 -1.02772,-2.24464 -1.51905,-1.94098 -0.49133,0.3037 -0.89333,0.0559 -0.89333,-0.55071 0,-0.60657 0.7875,-0.97063 1.75,-0.80902 1.51135,0.25377 1.79007,-0.69488 2.04381,-6.95616 0.17245,-4.25525 -0.10992,-7.25 -0.68357,-7.25 -0.53757,0 -1.17183,1.2375 -1.40948,2.75 -0.23766,1.5125 -0.44033,-1.13172 -0.4504,-5.87604 -0.0168,-7.92902 0.13234,-8.58664 1.84602,-8.13851 1.37126,0.3586 2.03582,1.7804 2.5128,5.37604 1.41558,10.67117 2.15957,3.7533 2.02849,-18.86149 l -0.13767,-23.75 -2.32449,-0.32931 c -2.13885,-0.30302 -2.2704,-0.66242 -1.64708,-4.5 0.37258,-2.29388 1.0811,-4.59819 1.57449,-5.12069 0.4934,-0.5225 0.89708,-1.95844 0.89708,-3.19098 0,-2.62582 1.69381,-3.93862 4.5,-3.48779 1.63382,0.26249 1.45073,-0.15381 -1,-2.27374 -1.65,-1.42727 -3.3375,-2.5956 -3.75,-2.59627 -0.4125,-6.7e-4 -0.75,-0.87466 -0.75,-1.9422 0,-1.06754 -0.45,-2.2191 -1,-2.55902 -0.55,-0.33992 -1,-1.48201 -1,-2.53798 0,-1.69769 1.00475,-1.40294 8.67949,2.54619 4.77372,2.45638 8.89481,4.25082 9.15799,3.98765 0.64007,-0.64007 3.16252,1.50199 3.16252,2.6856 0,0.51512 -0.52647,0.6112 -1.16993,0.21351 -0.76255,-0.47128 -0.9683,-0.19759 -0.59087,0.78599 0.3185,0.82998 -0.24164,3.34219 -1.24474,5.58269 -1.00311,2.24051 -1.52472,4.4074 -1.15914,4.81532 0.36558,0.40793 0.10218,0.41798 -0.58532,0.0223 -0.84095,-0.48395 -1.273,0.0362 -1.32028,1.58967 -0.066,2.16831 -0.11966,2.18714 -0.88044,0.30902 -0.68915,-1.70125 -0.91653,-1.45477 -1.52228,1.65014 -0.39166,2.00757 -0.49766,4.48257 -0.23555,5.5 0.27639,1.07287 0.52528,0.48478 0.59255,-1.40014 0.0638,-1.78746 0.566,-3.24996 1.116,-3.24996 1.2668,0 1.25383,0.42078 -0.15828,5.13398 -0.63706,2.12631 -1.53777,3.86602 -2.00159,3.86602 -0.46381,0 -0.62629,3.7125 -0.36106,8.25 0.26523,4.5375 0.5869,12.1875 0.71483,17 0.21383,8.04424 0.94341,10.65452 2.09626,7.5 0.25126,-0.6875 0.51376,-0.0125 0.58334,1.5 0.0696,1.5125 0.17429,3.87202 0.2327,5.24338 0.0584,1.37136 0.50841,2.24481 1,1.94099 0.49159,-0.30382 0.8938,0.18887 0.8938,1.09487 0,0.906 1.29508,4.4453 2.87796,7.86511 1.58288,3.41981 3.20679,7.71501 3.6087,9.54488 0.45825,2.08643 1.0112,2.87325 1.48288,2.11006 0.57706,-0.93371 0.87128,-0.90651 1.26398,0.11686 0.81279,2.1181 0.64765,3.35674 -0.40785,3.05907 -0.53588,-0.15112 -0.70147,0.16672 -0.36797,0.70633 0.33349,0.53961 1.26694,0.72761 2.07433,0.41779 0.80739,-0.30983 1.46797,-0.11384 1.46797,0.43552 0,0.54936 2.06671,3.2975 4.59267,6.10699 4.20138,4.67294 4.5823,5.66357 1.98806,5.17015 -0.5056,-0.0962 -0.338,0.52554 0.37244,1.38158 1.43596,1.73022 2.51136,2.11706 1.54683,0.55642 -1.3564,-2.1947 0.92512,-0.70594 8.41764,5.49277 9.10199,7.53026 24.05906,15.39377 35.58236,18.70702 6.98333,2.00789 10.22397,2.30021 25.5,2.30021 18.30537,0 21.504,-0.52102 35,-5.70106 14.20513,-5.45223 30.91741,-18.26399 40.56676,-31.09879 6.10483,-8.12016 11.77337,-19.52158 15.12333,-30.41831 2.47164,-8.03974 2.69897,-10.17616 2.69026,-25.28184 -0.0111,-19.27327 -1.56826,-26.66361 -8.74403,-41.5 -22.96044,-47.47225 -79.14475,-66.30072 -127.57831,-42.75401 -5.25691,2.55573 -9.92896,4.54725 -10.38234,4.42561 -0.45338,-0.12163 -0.55328,0.21742 -0.22199,0.75345 0.33128,0.53603 -0.26301,1.43773 -1.32067,2.00376 -2.20755,1.18145 -4.41617,-0.73555 -4.65996,-4.04467 -0.28189,-3.82628 -7.79634,-9.94305 -15.80207,-12.86292 -2.80898,-1.0245 -2.82421,-1.07681 -2.14911,-7.38081 0.58592,-5.47127 0.44184,-6.44036 -1.0422,-7.00984 -2.4697,-0.94771 -6.0534,3.08863 -6.76498,7.61943 -0.48335,3.07767 -0.28646,3.75545 1.09819,3.78041 2.79899,0.0504 -1.8057,2.38139 -5.08598,2.57457 -4.0349,0.23762 -13.34585,-10.2672 -12.89659,-14.55023 0.21211,-2.02211 -0.3433,-3.51356 -1.76021,-4.72676 -1.78399,-1.5275 -2.0701,-2.91652 -2.0701,-10.05023 0,-8.37452 -0.13351,-8.65575 -4,-8.42534 -1.09483,0.0652 -1.14585,-0.0658 -0.18886,-0.48523 1.02012,-0.44708 0.92159,-1.00504 -0.44394,-2.51393 -1.50678,-1.66499 -1.52637,-1.85157 -0.13845,-1.31898 0.88914,0.3412 1.86229,1.26056 2.16255,2.04304 0.60921,1.58758 3.6087,1.96815 3.6087,0.45786 0,-0.53065 -0.96079,-1.47901 -2.1351,-2.10748 -1.70586,-0.91296 -1.85664,-1.31902 -0.75,-2.01987 1.97697,-1.25204 5.8851,-1.11338 5.8851,0.2088 0,0.61783 0.87814,0.887 1.96582,0.60256 1.13037,-0.2956 1.87409,-0.0457 1.75,0.58792 -0.1187,0.60609 0.34668,1.12244 1.03418,1.14744 0.6875,0.025 1.25,0.38295 1.25,0.79545 0,0.4125 0,1.04474 0,1.40499 0,0.36024 -0.9,-0.1595 -2,-1.15499 -1.13419,-1.02643 -2,-1.30998 -2,-0.65499 0,0.63525 0.43588,1.15499 0.96862,1.15499 0.53274,0 0.71529,0.7875 0.40567,1.75 -0.41765,1.29833 -0.31801,1.40831 0.38606,0.42611 0.76596,-1.06852 1.30381,-0.97208 2.78838,0.5 1.64801,1.63414 1.7717,1.64516 1.18899,0.10592 -0.81385,-2.14981 0.8496,-3.33585 1.95082,-1.39094 0.44631,0.78823 2.43652,3.18561 4.4227,5.32749 4.0468,4.36405 6.37512,8.08138 6.38837,10.1995 0.005,0.77994 0.63211,1.62582 1.39383,1.87973 0.83967,0.27989 1.11006,0.0169 0.68674,-0.66808 -0.38401,-0.62135 -0.29665,-1.12973 0.19414,-1.12973 2.06486,0 1.95702,1.37703 -0.29833,3.80932 -1.3231,1.4269 -2.72146,2.27854 -3.10747,1.89252 -0.38602,-0.38601 -0.17685,-0.70184 0.46482,-0.70184 1.57387,0 1.49046,-2.66177 -0.10257,-3.27307 -0.88811,-0.3408 -1.26923,0.6515 -1.26923,3.30469 0,3.256 0.23974,3.66343 1.69679,2.88365 0.93324,-0.49946 2.35887,-0.65403 3.16808,-0.34351 0.80921,0.31052 1.79806,0.0359 2.19744,-0.61035 0.54019,-0.87404 0.96973,-0.82748 1.67729,0.18183 0.76828,1.09594 0.86724,1.0684 0.51476,-0.14324 -0.25105,-0.863 -1.37583,-1.39339 -2.64861,-1.24895 -2.08293,0.23638 -2.11278,0.15159 -0.51065,-1.45055 1.60214,-1.60213 1.84848,-1.52912 4.2142,1.24895 1.38193,1.6228 3.7871,4.41536 5.34483,6.20568 l 2.83223,3.25513 10.77605,-5.42895 c 20.8484,-10.50339 37.46966,-14.17994 59.77605,-13.22221 56.80102,2.43876 103.04913,43.20052 113.61942,100.1409 1.69552,9.13352 1.68512,30.9931 -0.0193,40.5 -1.78646,9.96456 -6.15532,23.17377 -10.55257,31.90554 -18.41892,36.57509 -49.28939,59.53354 -89.54757,66.59676 -7.60111,1.3336 -26.40159,1.82373 -33,0.86032 z m -57.54271,-25.29352 c 0.31644,-0.512 0.19299,-1.1672 -0.27431,-1.45601 -0.4673,-0.28881 -0.84964,0.13009 -0.84964,0.9309 0,1.68617 0.31533,1.83349 1.12395,0.52511 z m -23.40046,-24.34688 c -1.28264,-1.22222 -1.97508,-1.54722 -1.53875,-0.72222 1.39371,2.6352 2.7506,4.06466 3.31887,3.49639 0.30357,-0.30357 -0.49749,-1.55195 -1.78012,-2.77417 z m 3.94317,0.90022 c 0,-0.20765 -0.7875,-0.99515 -1.75,-1.75 -1.58605,-1.24387 -1.62142,-1.2085 -0.37755,0.37756 1.30637,1.66575 2.12755,2.19548 2.12755,1.37244 z m 4.38156,-29.17438 c 0.3415,-0.88992 0.17385,-1.29132 -0.39301,-0.94098 -0.5437,0.33602 -0.98855,1.0344 -0.98855,1.55194 0,1.43843 0.71677,1.12146 1.38156,-0.61096 z m -6.19822,-17.66473 c -0.71756,-0.71756 -1.18334,-0.7766 -1.18334,-0.15 0,1.33478 1.18261,2.51739 1.85,1.85 0.28417,-0.28416 -0.0158,-1.04916 -0.66666,-1.7 z m -3.49401,-10.53333 c -0.25153,-0.9625 -0.45732,-0.175 -0.45732,1.75 0,1.925 0.20579,2.7125 0.45732,1.75 0.25153,-0.9625 0.25153,-2.5375 0,-3.5 z m 0.24039,-12.66667 c 0.0996,-4.1342 -0.54565,-2.88306 -1.2464,2.41667 -0.39731,3.00479 -0.30077,3.83546 0.29055,2.5 0.48706,-1.1 0.91719,-3.3125 0.95585,-4.91667 z m -1.63961,-3.58471 c 0.28786,-1.10076 0.11534,-1.7492 -0.38336,-1.44098 -0.49871,0.30822 -0.90675,1.20884 -0.90675,2.00138 0,2.06975 0.6795,1.77459 1.29011,-0.5604 z m -0.60699,-19.18612 c -0.31923,-0.79773 -0.55618,-0.56078 -0.60417,0.60417 -0.0434,1.05416 0.19293,1.64479 0.52522,1.3125 0.33229,-0.33229 0.36782,-1.1948 0.079,-1.91667 z m 3,-5 c -0.31923,-0.79773 -0.55618,-0.56078 -0.60417,0.60417 -0.0434,1.05416 0.19293,1.64479 0.52522,1.3125 0.33229,-0.33229 0.36782,-1.1948 0.079,-1.91667 z m 6.63405,-10.42837 c -0.46516,-1.21217 -0.76946,-1.27033 -1.39035,-0.26572 -0.93743,1.5168 -0.17706,3.15429 1.09861,2.36588 0.48797,-0.30159 0.61926,-1.24666 0.29174,-2.10016 z m -3.28081,-59.84033 c -0.66469,-0.8009 -0.92142,-1.92075 -0.57051,-2.48854 0.38062,-0.61585 0.0119,-0.79208 -0.91391,-0.43682 -1.99451,0.76537 -1.95546,1.35475 0.19806,2.98951 2.3079,1.75195 2.77428,1.72869 1.28636,-0.0642 z m -3.03636,-4.5438 c 0,-0.55 -0.47655,-1 -1.05901,-1 -0.58246,0 -0.7809,0.45 -0.44099,1 0.33992,0.55 0.81648,1 1.05902,1 0.24254,0 0.44098,-0.45 0.44098,-1 z m -4,-3.5 c -0.68468,-0.825 -1.69488,-1.5 -2.24488,-1.5 -0.55783,0 -0.44955,0.66326 0.24488,1.5 0.68469,0.825 1.69489,1.5 2.24489,1.5 0.55783,0 0.44955,-0.66326 -0.24489,-1.5 z m -8.4357,158.79313 c -0.54269,-1.4252 -0.42782,-1.54006 0.55979,-0.5598 0.68342,0.67834 0.99067,1.48524 0.68279,1.79313 -0.30789,0.30789 -0.86705,-0.24711 -1.24258,-1.23333 z m -3.5643,-14.73411 c 0,-1.34254 0.36858,-2.66878 0.81906,-2.94719 0.45048,-0.27841 0.62441,0.82003 0.3865,2.44098 -0.52453,3.57389 -1.20556,3.85985 -1.20556,0.50621 z m 2.07895,0.85765 c 0.048,-1.16495 0.28494,-1.4019 0.60417,-0.60417 0.28887,0.72187 0.25334,1.58438 -0.079,1.91667 -0.33229,0.33229 -0.56864,-0.25834 -0.52522,-1.3125 z m -3.00866,-8.16667 c -0.0387,-1.7875 0.37971,-3.25 0.92971,-3.25 1.18718,0 1.18718,1.7373 0,4.5 -0.7202,1.67602 -0.87081,1.47353 -0.92971,-1.25 z m 85.02285,-8.9377 c -1.45111,-5.43693 -4.06087,-16.67513 -4.07836,-17.5623 -0.008,-0.4125 0.6299,-0.75 1.41783,-0.75 1.55377,0 1.57779,0.0632 4.08316,10.75 0.93482,3.9875 1.83054,7.25 1.99049,7.25 0.15996,0 1.52905,-3.39498 3.04243,-7.54441 3.43674,-9.42296 4.93231,-9.43279 8.09516,-0.0532 1.28014,3.7963 2.50527,7.0801 2.72251,7.29735 0.21725,0.21724 1.16507,-2.88882 2.10627,-6.90236 2.51896,-10.74159 2.54012,-10.79738 4.09476,-10.79738 1.75604,0 1.75614,-0.007 -0.11999,8 -3.17313,13.54221 -3.36311,14 -5.80998,14 -1.95444,0 -2.63689,-1.06746 -4.71145,-7.3694 l -2.42597,-7.3694 -2.5,7.1194 c -1.9718,5.61522 -2.96369,7.18538 -4.69468,7.4317 -1.79541,0.25549 -2.37979,-0.38125 -3.21218,-3.5 z m 27.90686,-7.3123 v -11 h 6.5 c 5.11111,0 6.5,0.32051 6.5,1.5 0,1.13333 -1.22222,1.5 -5,1.5 -4.88889,0 -5,0.0667 -5,3 0,2.88889 0.16667,3 4.5,3 3.33333,0 4.5,0.38889 4.5,1.5 0,1.11111 -1.16667,1.5 -4.5,1.5 -4.47619,0 -4.5,0.0185 -4.5,3.5 v 3.5 h 5.5 c 4.22222,0 5.5,0.34848 5.5,1.5 0,1.19048 -1.44444,1.5 -7,1.5 h -7 z m 18,0 v -11 h 5.27749 c 3.15808,0 6.17005,0.62516 7.5,1.5567 2.40588,1.68514 2.93425,5.33156 1.04614,7.21967 -0.90183,0.90183 -0.78514,1.60868 0.5,3.02874 4.66305,5.15262 0.0842,10.19489 -9.25789,10.19489 h -5.06574 z m 11.55887,6.55857 c 3.01133,-2.23614 0.75329,-4.98327 -4.41071,-5.36607 -4.14448,-0.30722 -4.14816,-0.30434 -4.14816,3.25 0,3.35991 0.18378,3.5575 3.30887,3.5575 1.81988,0 4.18238,-0.64864 5.25,-1.44143 z m -0.55887,-9.54542 c 2.47831,-1.57987 -0.12335,-4.46388 -4.35128,-4.82352 -3.47107,-0.29525 -3.64872,-0.16136 -3.64872,2.75 0,2.7892 0.28797,3.05901 3.25,3.04506 1.7875,-0.008 3.925,-0.44561 4.75,-0.97154 z m -140,-4.51315 c 0,-1.925 0.45,-3.5 1,-3.5 0.55,0 1,1.575 1,3.5 0,1.925 -0.45,3.5 -1,3.5 -0.55,0 -1,-1.575 -1,-3.5 z m 1.71139,-9.88957 c -0.94945,-6.52585 -0.89694,-9.61043 0.16361,-9.61043 1.356,0 1.97095,5.02528 1.22371,10 l -0.67593,4.5 z m -8.51644,-4.11043 c 0.0204,-1.65 0.2445,-2.20394 0.49805,-1.23097 0.25354,0.97297 0.23686,2.32297 -0.0371,3 -0.27393,0.67703 -0.48138,-0.11903 -0.461,-1.76903 z m 2.46078,-14.25 c -0.25426,-0.4125 0.13263,-2.1 0.85977,-3.75 l 1.32207,-3 0.0812,3.75 c 0.0735,3.39379 -1.07876,4.92128 -2.26306,3 z m 51.34427,-13.75 v -8.5 h 8.42857 c 10.37056,0 11.57143,0.88212 11.57143,8.5 0,7.61788 -1.20087,8.5 -11.57143,8.5 h -8.42857 z m 17.5,0 v -6 l -7.75,-0.29206 -7.75,-0.29207 v 6.58413 6.58413 l 7.75,-0.29207 7.75,-0.29206 z m 6.07143,6.92857 c -2.14979,-2.14978 -2.00293,-7.7281 0.25731,-9.77358 3.93636,-3.56236 12.17126,-1.25085 12.17126,3.41644 0,1.69306 -0.74165,1.92857 -6.07332,1.92857 -5.25034,0 -6.02606,0.23714 -5.7245,1.75 0.28424,1.42597 1.40878,1.74534 6.07332,1.72482 5.63293,-0.0248 7.25218,0.72498 4.14271,1.91819 -3.02821,1.16204 -9.27581,0.60653 -10.84678,-0.96444 z m 10.17857,-7.67857 c -0.24786,-0.74359 -2.17222,-1.25 -4.75,-1.25 -2.57778,0 -4.50214,0.50641 -4.75,1.25 -0.29749,0.89247 1.06111,1.25 4.75,1.25 3.68889,0 5.04749,-0.35753 4.75,-1.25 z m 6.22994,7.72583 c -1.6097,-1.93957 -0.50129,-3.1534 1.42199,-1.55722 2.08289,1.72864 10.09807,0.99951 10.09807,-0.91861 0,-1.03891 -1.22957,-1.58193 -4,-1.76654 -6.70282,-0.44665 -8.5,-1.1269 -8.5,-3.21733 0,-1.07017 0.87042,-2.4116 1.93426,-2.98095 2.96918,-1.58905 10.61801,-1.27959 12.0858,0.48899 1.53397,1.84833 0.4315,3.32739 -1.23673,1.65916 -1.81457,-1.81457 -10.78333,-1.55119 -10.78333,0.31667 0,1.14465 1.25556,1.5 5.3,1.5 2.915,0 5.84,0.54 6.5,1.2 1.80186,1.80186 1.4457,4.59814 -0.73426,5.76482 -2.96918,1.58905 -10.61801,1.27959 -12.0858,-0.48899 z m 17.48562,0.1006 c -1.58004,-1.17307 -1.7466,-1.81402 -0.84923,-3.26786 0.86337,-1.39875 2.39332,-1.80857 6.75182,-1.80857 5.55139,0 6.45661,-0.64929 4.72259,-3.38742 -0.63516,-1.00296 -2.29356,-1.25146 -5.98469,-0.89679 -2.80833,0.26984 -5.10605,0.15483 -5.10605,-0.25559 0,-2.35653 10.14352,-2.67382 12.42857,-0.38877 0.98448,0.98447 1.57143,3.33367 1.57143,6.28942 v 4.71799 l -5.78444,0.22844 c -3.81698,0.15074 -6.45299,-0.26791 -7.75,-1.23085 z m 10.79756,-2.07643 c -0.13028,-0.55 -2.49278,-1.13602 -5.25,-1.30226 -4.64481,-0.28005 -6.04947,0.43257 -4.30035,2.18169 1.07571,1.07572 9.82269,0.27026 9.55035,-0.87943 z m 4.73688,-3 c 0,-3.66667 0.4359,-6.5 1,-6.5 0.55,0 1,0.5051 1,1.12244 0,0.79823 0.41441,0.77852 1.43468,-0.0682 3.11021,-2.58124 11.93608,0.90837 9.20495,3.6395 -0.4343,0.43429 -1.22824,0.006 -1.76432,-0.95204 -0.97767,-1.74699 -4.33625,-2.26949 -7.29352,-1.13468 -1.14417,0.43906 -1.58179,1.9607 -1.58179,5.5 0,2.69115 -0.45,4.89301 -1,4.89301 -0.5641,0 -1,-2.83333 -1,-6.5 z m 14,0 c 0,-3.66667 0.4359,-6.5 1,-6.5 0.55,0 1,0.5051 1,1.12244 0,0.79823 0.41441,0.77852 1.43468,-0.0682 3.11021,-2.58124 11.93608,0.90837 9.20495,3.6395 -0.4343,0.43429 -1.22824,0.006 -1.76432,-0.95204 -0.97767,-1.74699 -4.33625,-2.26949 -7.29352,-1.13468 -1.14417,0.43906 -1.58179,1.9607 -1.58179,5.5 0,2.69115 -0.45,4.89301 -1,4.89301 -0.5641,0 -1,-2.83333 -1,-6.5 z m 15.65499,4.67126 c -2.0937,-2.31351 -2.13923,-7.54417 -0.0836,-9.59983 0.94774,-0.9477 3.3009,-1.57143 5.92861,-1.57143 2.62771,0 4.98087,0.62373 5.92857,1.57143 2.14979,2.14978 2.00293,7.7281 -0.25731,9.77358 -2.524,2.28419 -9.38556,2.18066 -11.51627,-0.17375 z m 10.29482,-1.61079 c 0.65709,-0.79174 1.04969,-2.70424 0.87245,-4.25 -0.30534,-2.66293 -0.58474,-2.81047 -5.32226,-2.81047 -4.74766,0 -5.01638,0.14305 -5.32457,2.83447 -0.17852,1.55896 -0.0801,3.47146 0.21861,4.25 0.72508,1.88952 7.98282,1.87129 9.55577,-0.024 z m 6.05019,-5.06047 c 0,-5 0.41176,-8.5 1,-8.5 0.58824,0 1,3.5 1,8.5 0,5 -0.41176,8.5 -1,8.5 -0.58824,0 -1,-3.5 -1,-8.5 z m 6,0 c 0,-5 0.41176,-8.5 1,-8.5 0.58824,0 1,3.5 1,8.5 0,5 -0.41176,8.5 -1,8.5 -0.58824,0 -1,-3.5 -1,-8.5 z m 6.65499,6.67126 c -2.0937,-2.31351 -2.13923,-7.54417 -0.0836,-9.59983 0.94774,-0.9477 3.3009,-1.57143 5.92861,-1.57143 2.62771,0 4.98087,0.62373 5.92857,1.57143 2.14979,2.14978 2.00293,7.7281 -0.25731,9.77358 -2.524,2.28419 -9.38556,2.18066 -11.51627,-0.17375 z m 10.29482,-1.61079 c 0.65709,-0.79174 1.04969,-2.70424 0.87245,-4.25 -0.30534,-2.66293 -0.58474,-2.81047 -5.32226,-2.81047 -4.74766,0 -5.01638,0.14305 -5.32457,2.83447 -0.17852,1.55896 -0.0801,3.47146 0.21861,4.25 0.72508,1.88952 7.98282,1.87129 9.55577,-0.024 z m -189.60868,-9.95417 c 0.15774,-5.35509 1.64486,-6.95155 1.67419,-1.79728 0.012,2.10476 0.22648,2.36421 0.98468,1.19098 0.73975,-1.14468 0.95431,-0.78936 0.90574,1.5 -0.035,1.65 -0.29154,2.4347 -0.57009,1.74377 -0.27856,-0.69093 -0.89838,-1.01402 -1.37738,-0.71798 -0.47901,0.29605 -0.61743,1.19885 -0.3076,2.00624 0.30982,0.80738 0.10618,1.46797 -0.45255,1.46797 -0.58188,0 -0.94799,-2.30417 -0.85699,-5.3937 z m 48.86944,-35.20716 c -0.70918,-0.76953 -0.84824,-1.39914 -0.30901,-1.39914 1.03844,0 2.54172,1.90221 1.94858,2.46567 -0.19258,0.18294 -0.93038,-0.297 -1.63957,-1.06653 z M 180.3644,325.35593 c -0.78218,-1.2656 0.54163,-1.2656 2.5,0 1.29269,0.8354 1.26629,0.97149 -0.19098,0.98469 -0.93004,0.008 -1.9691,-0.43469 -2.30902,-0.98469 z m -10.5,-11 c 0,-0.55 0.47656,-1 1.05902,-1 0.58246,0 0.7809,0.45 0.44098,1 -0.33991,0.55 -0.81647,1 -1.05901,1 -0.24254,0 -0.44099,-0.45 -0.44099,-1 z m -21.33333,-10.66667 c -0.36667,-0.36666 -0.66667,-1.13166 -0.66667,-1.7 0,-0.6266 0.46578,-0.56756 1.18334,0.15 0.65083,0.65084 0.95083,1.41584 0.66666,1.7 -0.28416,0.28417 -0.81666,0.21667 -1.18333,-0.15 z m -5.66667,-10.25 c 0,-0.50416 0.5625,-1.1619 1.25,-1.46164 0.85764,-0.37391 0.54376,-1.06613 -1,-2.2053 -2.83394,-2.09124 -2.90613,-4.13049 -0.139,-3.92663 3.05076,0.22476 4.41128,3.16584 2.83069,6.1192 -1.27483,2.38204 -2.94169,3.21747 -2.94169,1.47437 z m 4,-20.46089 c 0,-0.20765 0.7875,-0.99515 1.75,-1.75 1.58606,-1.24387 1.62143,-1.2085 0.37756,0.37756 -1.30637,1.66575 -2.12756,2.19548 -2.12756,1.37244 z m 3,-0.0776 c 0,-0.77161 2.97627,-1.39226 3.3987,-0.70875 0.25451,0.41181 -0.40608,0.81419 -1.46797,0.89418 -1.0619,0.08 -1.93073,-0.003 -1.93073,-0.18543 z m -14,-60.04484 v -50.49999 h 8.5 8.5 v 43.99999 44 h 23 23 v 6.5 6.5 h -31.5 -31.5 z m 81,0 v -50.49999 h 8.5 8.5 v 50.49999 50.5 h -8.5 -8.5 z m 23,44 v -6.5 h 20.5 20.5 v 6.5 6.5 h -20.5 -20.5 z m 59,6.07797 c 0,-0.34732 30.90584,-88.75886 34.19752,-97.82796 0.97901,-2.69733 1.15625,-2.75 9.25384,-2.75 h 8.2557 l 13.2799,38.24999 c 7.30394,21.0375 15.23186,43.77983 17.6176,50.53851 l 4.3377,12.28851 -8.6629,-0.28851 -8.66291,-0.28851 -11.80154,-34 c -6.49084,-18.7 -12.37452,-35.70993 -13.07483,-37.79983 l -1.2733,-3.79984 -10.37237,29.79984 c -5.70481,16.3899 -11.70239,33.51233 -13.32797,38.04983 l -2.95559,8.25 h -8.40542 c -4.62299,0 -8.40543,-0.18991 -8.40543,-0.42203 z m 108,-50.07797 v -50.49999 h 8.35785 8.35784 l 13.64216,31.40859 13.64215,31.40859 v 12.59141 c 0,12.44789 -0.026,12.5914 -2.28479,12.5914 -2.05711,0 -3.4273,-2.83146 -13.75,-28.41409 l -11.46521,-28.41409 -0.26279,34.91409 -0.2628,34.91409 h -7.9872 -7.98721 z m 76.76296,15.75 -0.26296,-34.75 -11.36737,28.25 c -10.42778,25.91497 -11.5643,28.25 -13.75,28.25 -2.38003,0 -2.38264,-0.0133 -2.39132,-12.25 l -0.009,-12.25 13.69786,-31.75 13.69787,-31.74999 h 8.31082 8.31082 v 50.49999 50.5 H 491.87704 483.89 l -0.26296,-34.75 z m -393.728051,14.75 c 0.11113,-0.825 0.14185,-2.175 0.0683,-3 -0.11893,-1.33333 -0.2415,-1.33333 -1.10317,0 -0.75538,1.16887 -0.97275,0.89294 -0.98468,-1.25 -0.0166,-2.98699 -0.90982,-3.4542 -2.86762,-1.5 -1.00295,1.00111 -1.11827,-0.14377 -0.57917,-5.75 0.37022,-3.85 1.04347,-9.025 1.49611,-11.5 0.74835,-4.0919 0.60136,-4.66627 -1.62083,-6.33341 -2.41061,-1.8085 -2.44381,-2.04726 -2.44381,-17.57568 0,-15.05145 0.0987,-15.83222 2.25,-17.79163 2.98817,-2.72169 5.48135,-3.89729 9.99195,-4.71146 4.30827,-0.77765 3.70063,0.93245 7.275871,-20.47664 l 2.56989,-15.38883 -3.41273,-3.12594 c -5.746771,-5.26383 -5.774991,-13.33546 -0.0654,-18.69935 2.04213,-1.91849 3.62967,-2.39705 7.95174,-2.39705 4.71614,0 5.79649,0.39629 8.52857,3.12836 2.31546,2.31546 3.26339,4.32637 3.64802,7.73885 0.49245,4.36896 0.29833,4.83183 -3.70545,8.83562 l -4.22513,4.22513 -2.91492,17.03378 c -1.6032,9.36858 -3.16588,17.82449 -3.47262,18.79093 -0.36047,1.13575 0.0856,1.98601 1.26125,2.40425 2.8362,1.00895 5.33711,3.50467 4.64086,4.63123 -0.34701,0.56147 -0.17681,0.7402 0.37822,0.39717 1.04754,-0.64741 3.89773,2.19801 6.03107,6.021 2.02526,3.62928 2.53591,9.59514 1.22708,14.33568 -1.59316,5.77042 -1.98467,9.09233 -0.99984,8.48368 0.82037,-0.50702 5.04156,2.72878 5.04156,3.86466 0,0.36067 -1.08662,-0.0562 -2.41471,-0.92642 -2.03922,-1.33615 -4.61952,-2.03097 -8.8943,-2.39503 -0.44496,-0.0379 -0.57108,-0.45389 -0.28026,-0.92444 0.29081,-0.47055 -0.58263,-0.64309 -1.94099,-0.38343 -2.8525,0.54529 -3.10829,1.46413 -0.91443,3.28487 1.37641,1.14232 1.23264,1.55482 -1.25,3.58648 -1.54292,1.26263 -4.15531,2.31802 -5.80531,2.34531 -7.008391,0.11591 -7.045781,0.16939 -8.985891,12.84971 -0.98226,6.41993 -2.21237,12.1226 -2.73359,12.6726 -0.61822,0.65236 -0.87742,0.47854 -0.74561,-0.5 z m 26.619371,-35.45856 c -0.23748,-0.61887 0.19315,-1.97988 0.95697,-3.02446 0.76381,-1.04458 1.38875,-2.34924 1.38875,-2.89924 0,-0.55 -0.6382,-0.1272 -1.41823,0.93956 -0.80201,1.09681 -1.77965,1.55488 -2.25,1.05422 -0.45747,-0.48693 -0.29455,-1.0778 0.36206,-1.31303 0.6566,-0.23524 0.94596,-1.07363 0.64301,-1.8631 -1.10769,-2.88658 -2.0035,-1.31536 -1.9373,3.39794 0.0461,3.28224 0.48807,4.83334 1.37721,4.83334 0.72012,0 1.11501,-0.50635 0.87753,-1.12523 z m -4.65428,-24.02598 c 0,-0.14882 -0.57857,-0.75074 -1.28571,-1.33762 -0.968,-0.80337 -1.28571,-0.61459 -1.28571,0.76394 0,1.08108 0.52658,1.62892 1.28571,1.33762 0.70714,-0.27136 1.28571,-0.61513 1.28571,-0.76394 z m 219.00357,53.23454 c 1.09748,-2.8875 1.99565,-5.3625 1.99593,-5.5 2.7e-4,-0.1375 4.2332,-0.25 9.4065,-0.25 h 9.406 l 1.594,4.67814 c 0.8767,2.57298 1.594,5.04798 1.594,5.5 0,0.45202 -5.84817,0.82186 -12.99592,0.82186 h -12.99593 z m -197.50357,-11.75 c 0.33992,-0.55 0.81648,-1 1.05902,-1 0.24254,0 0.44098,0.45 0.44098,1 0,0.55 -0.47655,1 -1.05901,1 -0.58246,0 -0.7809,-0.45 -0.44099,-1 z m -15.75635,-8.17204 c -4.26599,-3.38172 -7.54992,-6.35502 -7.29762,-6.60732 0.25231,-0.2523 1.24758,0.3301 2.21171,1.29424 1.12471,1.1247 1.88845,1.34657 2.13095,0.61905 0.20789,-0.62366 0.83863,-1.13393 1.40164,-1.13393 0.56301,0 0.76587,0.67178 0.45079,1.49284 -0.31931,0.83213 0.38068,2.38119 1.58158,3.5 3.09834,2.88654 4.56896,2.47874 1.7773,-0.49284 -1.29174,-1.375 -1.94959,-2.5 -1.46187,-2.5 0.48771,0 1.90551,1.2375 3.15067,2.75 1.86665,2.26742 2.43198,2.49515 3.22158,1.29775 0.52671,-0.79874 0.67597,-1.92374 0.33168,-2.5 -0.34428,-0.57626 0.13045,-0.43426 1.05498,0.31556 0.92452,0.74982 1.38708,1.83879 1.02791,2.41994 -0.41082,0.66472 -0.0166,0.81239 1.06295,0.39814 1.05622,-0.40531 1.47142,-0.26277 1.07989,0.37074 -0.34986,0.56607 -1.46036,0.76762 -2.46779,0.44787 -2.33238,-0.74027 -3.54463,1.13883 -1.96364,3.0438 2.08911,2.51723 0.69209,1.61385 -7.29271,-4.71584 z m 14.66134,4.03039 c -1.89822,-2.13405 -1.897,-2.13675 0.34501,-0.75946 1.2375,0.76021 2.25,1.72396 2.25,2.14166 0,1.20572 -0.55692,0.90908 -2.59501,-1.3822 z m 107.59501,-9.35835 v -5.5 h 18 18 v 5.5 5.5 h -18 -18 z m 0,-43.49999 v -6 h 20.5 20.5 v 6 5.99999 h -20.5 -20.5 z m 98.5,-24.61389 c -1.1,-0.28346 -4.66516,-1.17187 -7.92258,-1.97426 -18.94037,-4.66552 -37.71098,-21.4373 -44.20561,-39.49828 -1.09599,-3.047853 -2.35638,-4.903829 -3.31935,-4.887903 -0.85385,0.01412 -5.37746,0.90257 -10.05246,1.97433 -4.675,1.071753 -9.23159,1.960203 -10.12576,1.974323 -1.25038,0.0198 -2.3331,-2.797593 -4.68919,-12.201804 -1.68489,-6.725112 -2.9229,-12.368004 -2.75115,-12.539758 0.27027,-0.270266 18.15111,-4.537401 24.18318,-5.771141 1.71043,-0.349836 2.3516,-1.636247 3.33806,-6.697316 3.76665,-19.324965 17.2398,-37.251924 34.59652,-46.033084 12.2375,-6.19122 27.56253,-8.7984801 40.19524,-6.83844 37.92792,5.88471 63.42732,42.300205 55.72646,79.582489 -6.21761,30.101354 -32.33846,51.957994 -63.43786,53.081674 -5.24452,0.18949 -10.4355,0.11262 -11.5355,-0.17083 z m 22.07186,-28.0432 c 26.0005,-8.7427 36.13683,-40.21777 20.00775,-62.127575 -7.73656,-10.509371 -19.04836,-16.215342 -32.1461,-16.215342 -16.57376,0 -29.87928,8.281309 -36.81158,22.9114 -2.8806,6.079286 -3.12193,7.401897 -3.12193,17.109626 0,9.930322 0.18962,10.906193 3.37723,17.381152 5.23881,10.641539 13.34527,17.619719 24.62277,21.195679 5.80892,1.84195 18.22692,1.71043 24.07186,-0.25494 z m -219.75936,8.97398 c 0.72188,-0.28887 1.58438,-0.25335 1.91667,0.0789 0.33229,0.3323 -0.25833,0.56864 -1.3125,0.52522 -1.16494,-0.048 -1.4019,-0.28494 -0.60417,-0.60416 z m 3.82588,-0.81689 c 0.31658,-0.825 0.97746,-1.5 1.46861,-1.5 0.49116,0 0.89301,-0.47656 0.89301,-1.05902 0,-0.58246 -0.44484,-0.78408 -0.98854,-0.44806 -0.57261,0.35389 -0.73101,-0.0602 -0.37646,-0.98411 0.33664,-0.87729 0.85671,-1.35044 1.1557,-1.05145 1.03501,1.03501 0.90155,5.04576 -0.19224,5.77733 -1.76831,1.18271 -2.57922,0.87876 -1.96008,-0.73469 z m 33.87062,-5.75 c -0.35862,-1.04679 -3.21382,-13.20436 -5.04928,-21.500007 -0.38274,-1.729879 -0.0503,-2.25 1.4379,-2.25 1.06464,0 2.12447,0.3375 2.35516,0.75 0.23069,0.4125 0.32064,0.287395 0.1999,-0.278012 -0.1992,-0.932771 50.30283,-13.141395 50.96464,-12.320456 0.72033,0.893548 5.86096,24.903525 5.42522,25.339255 -0.27229,0.2723 -2.71076,0.93889 -5.41881,1.48132 -2.70805,0.54243 -8.97373,1.8744 -13.92373,2.95994 -35.404,7.76414 -35.32845,7.75193 -35.991,5.81796 z m -33.509,-5.80902 c 0,-0.58246 0.45,-0.7809 1,-0.44098 0.55,0.33992 1,0.81648 1,1.05902 0,0.24254 -0.45,0.44098 -1,0.44098 -0.55,0 -1,-0.47656 -1,-1.05902 z m -2,-2.85919 c 0,-0.50502 -0.31232,-1.74252 -0.69404,-2.75001 -0.65008,-1.71575 -0.58674,-1.72546 1,-0.15321 1.88002,1.86284 2.23574,3.82143 0.69404,3.82143 -0.55,0 -1,-0.4132 -1,-0.91821 z"
     id="path3719"
     inkscape:connector-curvature="0" />
</svg>
